<svg version="1.1" id="Layer_1" xmlns="http://www.w3.org/2000/svg" xmlns:xlink="http://www.w3.org/1999/xlink" x="0px" y="0px"
	 width="100%" viewBox="0 0 1300 1300" enable-background="new 0 0 1300 1300" xml:space="preserve">
<path fill="#354EAD" opacity="1.000000" stroke="none" 
	d="
M692.000000,1301.000000 
	C461.333344,1301.000000 231.166672,1301.000000 1.000000,1301.000000 
	C1.000000,867.666687 1.000000,434.333344 1.000000,1.000000 
	C434.333344,1.000000 867.666687,1.000000 1301.000000,1.000000 
	C1301.000000,434.333344 1301.000000,867.666687 1301.000000,1301.000000 
	C1098.166626,1301.000000 895.333313,1301.000000 692.000000,1301.000000 
M547.248291,846.343079 
	C547.248291,800.182556 547.279419,754.021973 547.184814,707.861633 
	C547.177795,704.453979 548.047791,701.963440 550.529236,699.522339 
	C564.309387,685.966003 577.916809,672.234253 591.594055,658.573242 
	C592.719116,657.449463 593.923889,656.405518 595.221680,655.204102 
	C596.593018,656.997498 597.622437,658.300903 598.606873,659.637390 
	C634.761353,708.720947 670.912292,757.807129 707.062256,806.894104 
	C722.470642,827.816650 737.843262,848.765686 753.296753,869.654968 
	C760.683655,879.640259 770.896606,882.559631 782.535522,879.918335 
	C793.592896,877.409058 798.706116,869.043091 801.086060,858.623718 
	C803.351013,848.708252 799.919800,840.396790 794.135925,832.544678 
	C742.175659,762.003723 690.278809,691.416016 638.367371,620.839111 
	C637.116272,619.138123 635.911804,617.402832 634.222900,615.034668 
	C636.034729,613.553528 637.705933,612.410767 639.113647,611.004272 
	C689.805054,560.354736 740.463562,509.672150 791.154846,459.022461 
	C796.440735,453.740875 800.498657,447.782440 802.459106,440.498108 
	C807.776855,420.739899 795.020081,405.585663 775.108765,408.143494 
	C765.973267,409.317078 759.421509,415.040863 753.236755,421.223816 
	C686.294678,488.146149 619.367371,555.083191 552.429810,622.009949 
	C551.073486,623.366089 549.643188,624.648193 547.248352,626.907227 
	C547.248352,623.895874 547.248352,622.144043 547.248352,620.392212 
	C547.248352,592.061951 547.250671,563.731628 547.247681,535.401367 
	C547.244202,502.404968 547.397766,469.407471 547.169739,436.412628 
	C547.032227,416.512970 529.205139,403.496155 510.457550,409.148468 
	C497.661041,413.006592 490.351501,424.043610 490.350555,439.643829 
	C490.342377,576.129028 490.344086,712.614258 490.361694,849.099487 
	C490.362000,851.426086 490.460632,853.769470 490.744781,856.076538 
	C492.432159,869.776978 503.885529,880.200928 517.850586,880.825562 
	C531.443665,881.433472 543.567200,872.466858 546.467407,859.223328 
	C547.309998,855.375610 547.019409,851.279663 547.248291,846.343079 
M342.882660,295.403809 
	C246.420242,380.657745 192.148285,487.326019 181.376205,615.656494 
	C176.592407,672.646973 182.428589,728.880249 199.124435,783.624695 
	C236.972839,907.726624 312.818146,1001.685974 426.494751,1064.010498 
	C516.191467,1113.187744 612.552185,1129.641113 713.902832,1116.088623 
	C791.138245,1105.760864 861.191956,1077.192871 924.453247,1031.810547 
	C925.710022,1030.909058 926.851685,1029.847412 928.104675,1028.813110 
	C924.705688,1026.363159 922.338501,1027.131226 919.471802,1029.025146 
	C906.142822,1037.830933 893.002747,1047.023926 879.102051,1054.846924 
	C782.463867,1109.231934 679.131165,1127.075317 570.007141,1108.586670 
	C477.361328,1092.889771 396.087555,1052.565308 329.055542,986.759644 
	C214.340759,874.143799 168.359543,737.073608 191.115189,577.931396 
	C203.053299,494.441895 237.543304,420.200378 291.390594,355.377472 
	C395.640320,229.878769 551.713318,169.162003 713.192566,190.924179 
	C799.977112,202.619904 877.343201,236.588242 944.720093,292.382172 
	C1025.487183,359.264313 1078.000244,444.037445 1102.218262,546.189636 
	C1103.514893,551.659058 1103.511230,551.659912 1109.854004,552.335938 
	C1067.806763,387.806244 970.900757,271.239532 811.865295,210.570923 
	C652.910583,149.933105 473.126404,183.690018 342.882660,295.403809 
M1029.961548,886.640137 
	C1029.203735,885.161255 1028.530640,883.631165 1027.674927,882.211304 
	C1018.863098,867.590881 1001.028931,861.544678 985.093262,867.744202 
	C969.385559,873.854980 960.115173,890.577332 963.461792,906.763794 
	C967.667786,927.106934 987.498596,939.365540 1007.304443,933.865479 
	C1027.092285,928.370422 1037.382080,907.474609 1029.961548,886.640137 
M1101.159912,722.449890 
	C1095.087158,703.569641 1076.954346,693.344177 1058.451782,698.365784 
	C1040.449341,703.251770 1029.312256,721.885559 1033.646118,739.869080 
	C1038.232422,758.900391 1056.475098,770.324219 1075.488037,766.071167 
	C1094.624268,761.790405 1105.784302,743.331543 1101.159912,722.449890 
z"/>
<path fill="#FEF8EF" opacity="1.000000" stroke="none" 
	d="
M547.248291,846.820312 
	C547.019409,851.279663 547.309998,855.375610 546.467407,859.223328 
	C543.567200,872.466858 531.443665,881.433472 517.850586,880.825562 
	C503.885529,880.200928 492.432159,869.776978 490.744781,856.076538 
	C490.460632,853.769470 490.362000,851.426086 490.361694,849.099487 
	C490.344086,712.614258 490.342377,576.129028 490.350555,439.643829 
	C490.351501,424.043610 497.661041,413.006592 510.457550,409.148468 
	C529.205139,403.496155 547.032227,416.512970 547.169739,436.412628 
	C547.397766,469.407471 547.244202,502.404968 547.247681,535.401367 
	C547.250671,563.731628 547.248352,592.061951 547.248352,620.392212 
	C547.248352,622.144043 547.248352,623.895874 547.248352,626.907227 
	C549.643188,624.648193 551.073486,623.366089 552.429810,622.009949 
	C619.367371,555.083191 686.294678,488.146149 753.236755,421.223816 
	C759.421509,415.040863 765.973267,409.317078 775.108765,408.143494 
	C795.020081,405.585663 807.776855,420.739899 802.459106,440.498108 
	C800.498657,447.782440 796.440735,453.740875 791.154846,459.022461 
	C740.463562,509.672150 689.805054,560.354736 639.113647,611.004272 
	C637.705933,612.410767 636.034729,613.553528 634.222900,615.034668 
	C635.911804,617.402832 637.116272,619.138123 638.367371,620.839111 
	C690.278809,691.416016 742.175659,762.003723 794.135925,832.544678 
	C799.919800,840.396790 803.351013,848.708252 801.086060,858.623718 
	C798.706116,869.043091 793.592896,877.409058 782.535522,879.918335 
	C770.896606,882.559631 760.683655,879.640259 753.296753,869.654968 
	C737.843262,848.765686 722.470642,827.816650 707.062256,806.894104 
	C670.912292,757.807129 634.761353,708.720947 598.606873,659.637390 
	C597.622437,658.300903 596.593018,656.997498 595.221680,655.204102 
	C593.923889,656.405518 592.719116,657.449463 591.594055,658.573242 
	C577.916809,672.234253 564.309387,685.966003 550.529236,699.522339 
	C548.047791,701.963440 547.177795,704.453979 547.184814,707.861633 
	C547.279419,754.021973 547.248291,800.182556 547.248291,846.820312 
z"/>
<path fill="#F5F0EC" opacity="1.000000" stroke="none" 
	d="
M343.154907,295.177521 
	C473.126404,183.690018 652.910583,149.933105 811.865295,210.570923 
	C970.900757,271.239532 1067.806763,387.806244 1109.854004,552.335938 
	C1103.511230,551.659912 1103.514893,551.659058 1102.218262,546.189636 
	C1078.000244,444.037445 1025.487183,359.264313 944.720093,292.382172 
	C877.343201,236.588242 799.977112,202.619904 713.192566,190.924179 
	C551.713318,169.162003 395.640320,229.878769 291.390594,355.377472 
	C237.543304,420.200378 203.053299,494.441895 191.115189,577.931396 
	C168.359543,737.073608 214.340759,874.143799 329.055542,986.759644 
	C396.087555,1052.565308 477.361328,1092.889771 570.007141,1108.586670 
	C679.131165,1127.075317 782.463867,1109.231934 879.102051,1054.846924 
	C893.002747,1047.023926 906.142822,1037.830933 919.471802,1029.025146 
	C922.338501,1027.131226 924.705688,1026.363159 928.104675,1028.813110 
	C926.851685,1029.847412 925.710022,1030.909058 924.453247,1031.810547 
	C861.191956,1077.192871 791.138245,1105.760864 713.902832,1116.088623 
	C612.552185,1129.641113 516.191467,1113.187744 426.494751,1064.010498 
	C312.818146,1001.685974 236.972839,907.726624 199.124435,783.624695 
	C182.428589,728.880249 176.592407,672.646973 181.376205,615.656494 
	C192.148285,487.326019 246.420242,380.657745 343.154907,295.177521 
z"/>
<path fill="#FEF8EF" opacity="1.000000" stroke="none" 
	d="
M1030.079346,887.008301 
	C1037.382080,907.474609 1027.092285,928.370422 1007.304443,933.865479 
	C987.498596,939.365540 967.667786,927.106934 963.461792,906.763794 
	C960.115173,890.577332 969.385559,873.854980 985.093262,867.744202 
	C1001.028931,861.544678 1018.863098,867.590881 1027.674927,882.211304 
	C1028.530640,883.631165 1029.203735,885.161255 1030.079346,887.008301 
z"/>
<path fill="#FEF8EF" opacity="1.000000" stroke="none" 
	d="
M1101.274170,722.840698 
	C1105.784302,743.331543 1094.624268,761.790405 1075.488037,766.071167 
	C1056.475098,770.324219 1038.232422,758.900391 1033.646118,739.869080 
	C1029.312256,721.885559 1040.449341,703.251770 1058.451782,698.365784 
	C1076.954346,693.344177 1095.087158,703.569641 1101.274170,722.840698 
z"/>
</svg>